<svg width="21" height="18" viewBox="0 0 21 18" fill="none" xmlns="http://www.w3.org/2000/svg">
<path d="M7.35029 8.82332C9.67022 8.82332 11.5505 6.84841 11.5505 4.41166C11.5505 1.97491 9.67022 0 7.35029 0C5.03035 0 3.15012 1.97491 3.15012 4.41166C3.15012 6.84841 5.03035 8.82332 7.35029 8.82332ZM10.2904 9.92624H9.74241C9.01395 10.2778 8.20345 10.4777 7.35029 10.4777C6.49713 10.4777 5.68991 10.2778 4.95816 9.92624H4.41017C1.97539 9.92624 0 12.0011 0 14.5585V15.9923C0 16.9056 0.705496 17.6466 1.57506 17.6466H10.5956C10.5168 17.4123 10.484 17.1641 10.5103 16.9125L10.7334 14.8135L10.7728 14.431L11.032 14.1587L13.5685 11.4944C12.7646 10.5397 11.5997 9.92624 10.2904 9.92624ZM11.7769 14.9342L11.5537 17.0366C11.5176 17.3881 11.7998 17.6846 12.1313 17.6432L14.1296 17.4088L18.6546 12.656L16.3019 10.1847L11.7769 14.9342ZM20.7711 9.26793L19.5275 7.96167C19.2223 7.64113 18.7235 7.64113 18.4184 7.96167L17.178 9.26449L17.0435 9.4058L19.3995 11.877L20.7711 10.4363C21.0763 10.1124 21.0763 9.59191 20.7711 9.26793Z" fill="black"/>
</svg>
