<svg width="17" height="38" viewBox="0 0 17 38" fill="none" xmlns="http://www.w3.org/2000/svg">
<path d="M0.583633 37.2558C1.35915 38.2481 2.60948 38.2481 3.38499 37.2558L16.5372 20.4277C16.6839 20.2403 16.8003 20.0178 16.8797 19.7728C16.9591 19.5278 17 19.2652 17 19C17 18.7348 16.9591 18.4722 16.8797 18.2272C16.8003 17.9822 16.6839 17.7597 16.5372 17.5723L3.38499 0.744205C2.60948 -0.248068 1.35915 -0.248068 0.583633 0.744205C-0.191886 1.73648 -0.191886 3.33626 0.583633 4.32854L12.0423 19.0101L0.567805 33.6917C-0.191886 34.6637 -0.191886 36.2838 0.583633 37.2558Z" fill="white"/>
</svg>
