<svg width="15" height="10" viewBox="0 0 15 10" fill="none" xmlns="http://www.w3.org/2000/svg">
<path fill-rule="evenodd" clip-rule="evenodd" d="M14.2604 1.25C14.2604 1.39918 14.1979 1.54226 14.0865 1.64775C13.9752 1.75324 13.8241 1.8125 13.6667 1.8125H1C0.842528 1.8125 0.691505 1.75324 0.580155 1.64775C0.468806 1.54226 0.40625 1.39918 0.40625 1.25C0.40625 1.10082 0.468806 0.957742 0.580155 0.852252C0.691505 0.746763 0.842528 0.6875 1 0.6875H13.6667C13.8241 0.6875 13.9752 0.746763 14.0865 0.852252C14.1979 0.957742 14.2604 1.10082 14.2604 1.25ZM14.2604 5C14.2604 5.14918 14.1979 5.29226 14.0865 5.39775C13.9752 5.50324 13.8241 5.5625 13.6667 5.5625H1C0.842528 5.5625 0.691505 5.50324 0.580155 5.39775C0.468806 5.29226 0.40625 5.14918 0.40625 5C0.40625 4.85082 0.468806 4.70774 0.580155 4.60225C0.691505 4.49676 0.842528 4.4375 1 4.4375H13.6667C13.8241 4.4375 13.9752 4.49676 14.0865 4.60225C14.1979 4.70774 14.2604 4.85082 14.2604 5ZM14.2604 8.75C14.2604 8.89918 14.1979 9.04226 14.0865 9.14775C13.9752 9.25324 13.8241 9.3125 13.6667 9.3125H1C0.842528 9.3125 0.691505 9.25324 0.580155 9.14775C0.468806 9.04226 0.40625 8.89918 0.40625 8.75C0.40625 8.60082 0.468806 8.45774 0.580155 8.35225C0.691505 8.24676 0.842528 8.1875 1 8.1875H13.6667C13.8241 8.1875 13.9752 8.24676 14.0865 8.35225C14.1979 8.45774 14.2604 8.60082 14.2604 8.75Z" fill="white"/>
</svg>
