<svg width="17" height="18" viewBox="0 0 17 18" fill="none" xmlns="http://www.w3.org/2000/svg">
<path d="M13.2812 18C14.2675 18 15.2134 17.5852 15.9108 16.8467C16.6082 16.1083 17 15.1068 17 14.0625C17 13.0182 16.6082 12.0167 15.9108 11.2783C15.2134 10.5398 14.2675 10.125 13.2812 10.125C12.295 10.125 11.3491 10.5398 10.6517 11.2783C9.9543 12.0167 9.5625 13.0182 9.5625 14.0625C9.5625 15.1068 9.9543 16.1083 10.6517 16.8467C11.3491 17.5852 12.295 18 13.2812 18ZM13.8125 12.375V13.5H14.875C15.0159 13.5 15.151 13.5593 15.2507 13.6648C15.3503 13.7702 15.4062 13.9133 15.4062 14.0625C15.4062 14.2117 15.3503 14.3548 15.2507 14.4602C15.151 14.5657 15.0159 14.625 14.875 14.625H13.8125V15.75C13.8125 15.8992 13.7565 16.0423 13.6569 16.1477C13.5573 16.2532 13.4221 16.3125 13.2812 16.3125C13.1404 16.3125 13.0052 16.2532 12.9056 16.1477C12.806 16.0423 12.75 15.8992 12.75 15.75V14.625H11.6875C11.5466 14.625 11.4115 14.5657 11.3118 14.4602C11.2122 14.3548 11.1562 14.2117 11.1562 14.0625C11.1562 13.9133 11.2122 13.7702 11.3118 13.6648C11.4115 13.5593 11.5466 13.5 11.6875 13.5H12.75V12.375C12.75 12.2258 12.806 12.0827 12.9056 11.9773C13.0052 11.8718 13.1404 11.8125 13.2812 11.8125C13.4221 11.8125 13.5573 11.8718 13.6569 11.9773C13.7565 12.0827 13.8125 12.2258 13.8125 12.375ZM11.6875 5.625C11.6875 6.52011 11.3517 7.37855 10.7539 8.01149C10.1561 8.64442 9.34538 9 8.5 9C7.65462 9 6.84387 8.64442 6.2461 8.01149C5.64833 7.37855 5.3125 6.52011 5.3125 5.625C5.3125 4.72989 5.64833 3.87145 6.2461 3.23851C6.84387 2.60558 7.65462 2.25 8.5 2.25C9.34538 2.25 10.1561 2.60558 10.7539 3.23851C11.3517 3.87145 11.6875 4.72989 11.6875 5.625Z" fill="white"/>
<path d="M2.125 14.625C2.125 15.75 3.1875 15.75 3.1875 15.75H8.772C8.59138 15.208 8.49939 14.6373 8.5 14.0625C8.4993 13.339 8.64541 12.6237 8.92844 11.9652C9.21147 11.3066 9.62481 10.7201 10.1405 10.2454C9.64431 10.1678 9.09925 10.125 8.5 10.125C3.1875 10.125 2.125 13.5 2.125 14.625Z" fill="white"/>
</svg>
