<svg width="14" height="14" viewBox="0 0 14 14" fill="none" xmlns="http://www.w3.org/2000/svg">
<path d="M10.9375 14C11.7497 14 12.5287 13.6773 13.103 13.103C13.6773 12.5287 14 11.7497 14 10.9375C14 10.1253 13.6773 9.34632 13.103 8.77199C12.5287 8.19766 11.7497 7.875 10.9375 7.875C10.1253 7.875 9.34632 8.19766 8.77199 8.77199C8.19766 9.34632 7.875 10.1253 7.875 10.9375C7.875 11.7497 8.19766 12.5287 8.77199 13.103C9.34632 13.6773 10.1253 14 10.9375 14ZM11.375 9.625V10.5H12.25C12.366 10.5 12.4773 10.5461 12.5594 10.6281C12.6414 10.7102 12.6875 10.8215 12.6875 10.9375C12.6875 11.0535 12.6414 11.1648 12.5594 11.2469C12.4773 11.3289 12.366 11.375 12.25 11.375H11.375V12.25C11.375 12.366 11.3289 12.4773 11.2469 12.5594C11.1648 12.6414 11.0535 12.6875 10.9375 12.6875C10.8215 12.6875 10.7102 12.6414 10.6281 12.5594C10.5461 12.4773 10.5 12.366 10.5 12.25V11.375H9.625C9.50897 11.375 9.39769 11.3289 9.31564 11.2469C9.23359 11.1648 9.1875 11.0535 9.1875 10.9375C9.1875 10.8215 9.23359 10.7102 9.31564 10.6281C9.39769 10.5461 9.50897 10.5 9.625 10.5H10.5V9.625C10.5 9.50897 10.5461 9.39769 10.6281 9.31564C10.7102 9.23359 10.8215 9.1875 10.9375 9.1875C11.0535 9.1875 11.1648 9.23359 11.2469 9.31564C11.3289 9.39769 11.375 9.50897 11.375 9.625ZM9.625 4.375C9.625 5.07119 9.34844 5.73887 8.85616 6.23116C8.36387 6.72344 7.69619 7 7 7C6.30381 7 5.63613 6.72344 5.14384 6.23116C4.65156 5.73887 4.375 5.07119 4.375 4.375C4.375 3.67881 4.65156 3.01113 5.14384 2.51884C5.63613 2.02656 6.30381 1.75 7 1.75C7.69619 1.75 8.36387 2.02656 8.85616 2.51884C9.34844 3.01113 9.625 3.67881 9.625 4.375Z" fill="white"/>
<path d="M1.75 11.375C1.75 12.25 2.625 12.25 2.625 12.25H7.224C7.07525 11.8284 6.9995 11.3846 7 10.9375C6.99942 10.3747 7.11975 9.81844 7.35283 9.30623C7.58592 8.79402 7.92632 8.33786 8.351 7.96863C7.94237 7.90825 7.4935 7.875 7 7.875C2.625 7.875 1.75 10.5 1.75 11.375Z" fill="white"/>
</svg>
