<svg width="18" height="16" viewBox="0 0 18 16" fill="none" xmlns="http://www.w3.org/2000/svg">
<path d="M12.5393 13.168L12.0593 9.752C11.9912 9.26815 11.7267 8.82305 11.3154 8.50041C10.9041 8.17777 10.3743 7.99981 9.82575 8H8.17275C7.62444 8.00014 7.09506 8.17824 6.68406 8.50085C6.27307 8.82346 6.00874 9.26838 5.94075 9.752L5.46 13.168C5.43362 13.3557 5.45245 13.5462 5.51526 13.7269C5.57807 13.9076 5.68341 14.0744 5.82428 14.2161C5.96516 14.3579 6.13835 14.4713 6.33235 14.549C6.52635 14.6267 6.73673 14.6668 6.9495 14.6667H11.0505C11.2632 14.6667 11.4735 14.6265 11.6674 14.5488C11.8613 14.4711 12.0344 14.3576 12.1752 14.2159C12.316 14.0741 12.4213 13.9074 12.484 13.7267C12.5468 13.5461 12.5656 13.3556 12.5393 13.168Z" stroke="black" stroke-width="2" stroke-linecap="round" stroke-linejoin="round"/>
<path d="M9 5.33331C10.2426 5.33331 11.25 4.43788 11.25 3.33331C11.25 2.22874 10.2426 1.33331 9 1.33331C7.75736 1.33331 6.75 2.22874 6.75 3.33331C6.75 4.43788 7.75736 5.33331 9 5.33331Z" stroke="black" stroke-width="2"/>
<path d="M3 7.33329C3.82843 7.33329 4.5 6.73634 4.5 5.99996C4.5 5.26358 3.82843 4.66663 3 4.66663C2.17157 4.66663 1.5 5.26358 1.5 5.99996C1.5 6.73634 2.17157 7.33329 3 7.33329Z" stroke="black" stroke-width="2"/>
<path d="M15 7.33329C15.8284 7.33329 16.5 6.73634 16.5 5.99996C16.5 5.26358 15.8284 4.66663 15 4.66663C14.1716 4.66663 13.5 5.26358 13.5 5.99996C13.5 6.73634 14.1716 7.33329 15 7.33329Z" stroke="black" stroke-width="2"/>
<path d="M3 9.33331H2.7705C2.41542 9.33327 2.07184 9.4452 1.80089 9.64919C1.52993 9.85317 1.34916 10.136 1.29075 10.4473L1.041 11.7806C1.00516 11.9717 1.01657 12.1674 1.07443 12.3541C1.13229 12.5408 1.23522 12.7141 1.37605 12.8618C1.51688 13.0096 1.69224 13.1283 1.88992 13.2097C2.08761 13.2912 2.30288 13.3333 2.52075 13.3333H5.25M15 9.33331H15.2295C15.5846 9.33327 15.9282 9.4452 16.1991 9.64919C16.4701 9.85317 16.6508 10.136 16.7093 10.4473L16.959 11.7806C16.9948 11.9717 16.9834 12.1674 16.9256 12.3541C16.8677 12.5408 16.7648 12.7141 16.624 12.8618C16.4831 13.0096 16.3078 13.1283 16.1101 13.2097C15.9124 13.2912 15.6971 13.3333 15.4793 13.3333H12.75" stroke="black" stroke-width="2" stroke-linecap="round" stroke-linejoin="round"/>
</svg>
