<svg width="13" height="10" viewBox="0 0 13 10" fill="none" xmlns="http://www.w3.org/2000/svg">
<path d="M13 3.40199V8.47727C13 8.75852 12.8863 8.99929 12.659 9.19957C12.4317 9.39986 12.1585 9.5 11.8393 9.5H1.16071C0.841518 9.5 0.568266 9.39986 0.34096 9.19957C0.113653 8.99929 0 8.75852 0 8.47727V3.40199C0.212798 3.6108 0.457031 3.79616 0.732701 3.9581C2.48344 5.00639 3.68527 5.74148 4.33817 6.16335C4.61384 6.34233 4.83752 6.48189 5.00921 6.58203C5.1809 6.68217 5.40941 6.78445 5.69475 6.88885C5.9801 6.99325 6.24609 7.04545 6.49275 7.04545H6.50725C6.75391 7.04545 7.0199 6.99325 7.30525 6.88885C7.59059 6.78445 7.8191 6.68217 7.99079 6.58203C8.16248 6.48189 8.38616 6.34233 8.66183 6.16335C9.484 5.6392 10.6882 4.90412 12.2746 3.9581C12.5502 3.7919 12.792 3.60653 13 3.40199ZM13 1.52273C13 1.85938 12.8815 2.18111 12.6445 2.48793C12.4076 2.79474 12.1125 3.05682 11.7595 3.27415C9.94103 4.38636 8.80934 5.07884 8.3644 5.35156C8.31603 5.38139 8.21326 5.44638 8.05608 5.54652C7.8989 5.64666 7.76832 5.72763 7.66434 5.78942C7.56036 5.85121 7.43462 5.92045 7.28711 5.99716C7.1396 6.07386 7.00056 6.13139 6.86998 6.16974C6.7394 6.2081 6.61849 6.22727 6.50725 6.22727H6.49275C6.38151 6.22727 6.2606 6.2081 6.13002 6.16974C5.99944 6.13139 5.8604 6.07386 5.71289 5.99716C5.56538 5.92045 5.43964 5.85121 5.33566 5.78942C5.23168 5.72763 5.1011 5.64666 4.94392 5.54652C4.78674 5.44638 4.68397 5.38139 4.6356 5.35156C4.1955 5.07884 3.56194 4.68999 2.73493 4.18501C1.90792 3.68004 1.4122 3.37642 1.24777 3.27415C0.947917 3.09517 0.664993 2.84908 0.398996 2.53587C0.132998 2.22266 0 1.93182 0 1.66335C0 1.33097 0.100353 1.05398 0.30106 0.832386C0.501767 0.610795 0.788318 0.5 1.16071 0.5H11.8393C12.1536 0.5 12.4257 0.600142 12.6554 0.800426C12.8851 1.00071 13 1.24148 13 1.52273Z" fill="white"/>
</svg>
