<svg width="21" height="16" viewBox="0 0 21 16" fill="none" xmlns="http://www.w3.org/2000/svg">
<path d="M21 5.15909V14.1818C21 14.6818 20.8164 15.1098 20.4492 15.4659C20.082 15.822 19.6406 16 19.125 16H1.875C1.35938 16 0.917969 15.822 0.550781 15.4659C0.183594 15.1098 0 14.6818 0 14.1818V5.15909C0.34375 5.5303 0.738281 5.85985 1.18359 6.14773C4.01172 8.01136 5.95312 9.31818 7.00781 10.0682C7.45312 10.3864 7.81445 10.6345 8.0918 10.8125C8.36914 10.9905 8.73828 11.1723 9.19922 11.358C9.66016 11.5436 10.0898 11.6364 10.4883 11.6364H10.5117C10.9102 11.6364 11.3398 11.5436 11.8008 11.358C12.2617 11.1723 12.6309 10.9905 12.9082 10.8125C13.1855 10.6345 13.5469 10.3864 13.9922 10.0682C15.3203 9.13636 17.2656 7.82955 19.8281 6.14773C20.2734 5.85227 20.6641 5.52273 21 5.15909ZM21 1.81818C21 2.41667 20.8086 2.98864 20.4258 3.53409C20.043 4.07955 19.5664 4.54545 18.9961 4.93182C16.0586 6.90909 14.2305 8.14015 13.5117 8.625C13.4336 8.67803 13.2676 8.79356 13.0137 8.97159C12.7598 9.14962 12.5488 9.29356 12.3809 9.40341C12.2129 9.51326 12.0098 9.63636 11.7715 9.77273C11.5332 9.90909 11.3086 10.0114 11.0977 10.0795C10.8867 10.1477 10.6914 10.1818 10.5117 10.1818H10.4883C10.3086 10.1818 10.1133 10.1477 9.90234 10.0795C9.69141 10.0114 9.4668 9.90909 9.22852 9.77273C8.99023 9.63636 8.78711 9.51326 8.61914 9.40341C8.45117 9.29356 8.24023 9.14962 7.98633 8.97159C7.73242 8.79356 7.56641 8.67803 7.48828 8.625C6.77734 8.14015 5.75391 7.44886 4.41797 6.55114C3.08203 5.65341 2.28125 5.11364 2.01562 4.93182C1.53125 4.61364 1.07422 4.17614 0.644531 3.61932C0.214844 3.0625 0 2.54545 0 2.06818C0 1.47727 0.162109 0.984848 0.486328 0.590909C0.810547 0.19697 1.27344 0 1.875 0H19.125C19.6328 0 20.0723 0.17803 20.4434 0.534091C20.8145 0.890152 21 1.31818 21 1.81818Z" fill="white"/>
</svg>
