<svg width="14" height="20" viewBox="0 0 14 20" fill="none" xmlns="http://www.w3.org/2000/svg">
<path d="M13.3791 3.06492L5.12945 10.0093L13.3791 16.9537C13.576 17.1194 13.7321 17.3162 13.8386 17.5327C13.9452 17.7492 14 17.9812 14 18.2155C14 18.4499 13.9452 18.6819 13.8386 18.8984C13.7321 19.1149 13.576 19.3116 13.3791 19.4773C13.1823 19.643 12.9486 19.7745 12.6914 19.8642C12.4342 19.9538 12.1585 20 11.8801 20C11.6018 20 11.3261 19.9538 11.0689 19.8642C10.8117 19.7745 10.578 19.643 10.3812 19.4773L0.621913 11.2622C-0.207304 10.5642 -0.207304 9.43659 0.621913 8.73857L10.3812 0.523415C10.5779 0.357494 10.8115 0.225859 11.0687 0.136045C11.3259 0.0462301 11.6017 -6.58055e-07 11.8801 -6.58055e-07C12.1586 -6.58055e-07 12.4343 0.0462301 12.6915 0.136045C12.9488 0.225859 13.1824 0.357494 13.3791 0.523415C14.1871 1.22143 14.2083 2.3669 13.3791 3.06492Z" fill="white"/>
</svg>
