<svg width="14" height="23" viewBox="0 0 14 23" fill="none" xmlns="http://www.w3.org/2000/svg">
<path d="M10.0389 22.2719C10.2484 22.4967 10.5009 22.677 10.7815 22.802C11.0621 22.927 11.365 22.9942 11.6721 22.9996C11.9793 23.0051 12.2844 22.9486 12.5692 22.8335C12.854 22.7185 13.1128 22.5472 13.33 22.33C13.5472 22.1128 13.7185 21.854 13.8335 21.5692C13.9486 21.2844 14.0051 20.9793 13.9996 20.6721C13.9942 20.365 13.927 20.0621 13.802 19.7815C13.6769 19.5009 13.4967 19.2484 13.2719 19.0389L5.73844 11.5054L13.2719 3.97194C13.676 3.53831 13.896 2.96477 13.8855 2.37215C13.8751 1.77953 13.635 1.21411 13.2159 0.794996C12.7968 0.375886 12.2313 0.135812 11.6387 0.125356C11.0461 0.1149 10.4726 0.334878 10.0389 0.738942L0.88894 9.88894C0.460566 10.3179 0.219952 10.8993 0.219952 11.5054C0.219952 12.1116 0.460566 12.693 0.88894 13.1219L10.0389 22.2719Z" fill="black"/>
</svg>
