<svg width="20" height="20" viewBox="0 0 20 20" fill="none" xmlns="http://www.w3.org/2000/svg">
<path d="M17.0407 17.041H14.0773V12.4002C14.0773 11.2935 14.0576 9.86893 12.5361 9.86893C10.9926 9.86893 10.7565 11.0747 10.7565 12.3196V17.0407H7.79318V7.49729H10.6379V8.80151H10.6778C10.9625 8.31471 11.3739 7.91425 11.8682 7.64277C12.3625 7.37129 12.9211 7.23896 13.4847 7.25987C16.4882 7.25987 17.0419 9.23549 17.0419 11.8056L17.0407 17.041ZM4.44943 6.19283C3.49966 6.19299 2.72958 5.42315 2.72943 4.47338C2.72927 3.52362 3.49904 2.75354 4.4488 2.75338C5.39857 2.75315 6.16865 3.52299 6.1688 4.47276C6.16889 4.92885 5.98779 5.3663 5.66534 5.68888C5.3429 6.01145 4.90552 6.19273 4.44943 6.19283ZM5.93115 17.0411H2.96466V7.49729H5.93107V17.041L5.93115 17.0411ZM18.518 0.00127251H1.4756C0.670131 -0.00778999 0.00958435 0.637444 -0.000259399 1.44291V18.5564C0.00927185 19.3623 0.669741 20.0081 1.47552 19.9997H18.518C19.3255 20.0097 19.9886 19.3638 19.9997 18.5564V1.44159C19.9883 0.634554 19.3251 -0.0106025 18.518 -5.56139e-05" fill="#0A66C2"/>
</svg>
