<svg width="20" height="21" viewBox="0 0 20 21" fill="none" xmlns="http://www.w3.org/2000/svg">
<path d="M15 15.1176L19 10.4118M19 10.4118L15 5.70588M19 10.4118H5M11 15.1176V16.2941C11 17.2302 10.6839 18.1279 10.1213 18.7898C9.55871 19.4517 8.79565 19.8235 8 19.8235H4C3.20435 19.8235 2.44129 19.4517 1.87868 18.7898C1.31607 18.1279 1 17.2302 1 16.2941V4.52941C1 3.59335 1.31607 2.69563 1.87868 2.03374C2.44129 1.37185 3.20435 1 4 1H8C8.79565 1 9.55871 1.37185 10.1213 2.03374C10.6839 2.69563 11 3.59335 11 4.52941V5.70588" stroke="black" stroke-width="2" stroke-linecap="round" stroke-linejoin="round"/>
</svg>
