<svg width="17" height="13" viewBox="0 0 17 13" fill="none" xmlns="http://www.w3.org/2000/svg">
<path d="M5.33333 3.99984H11.6667M5.33333 6.6665H10.0833M13.25 0.666504C13.8799 0.666504 14.484 0.877218 14.9294 1.25229C15.3748 1.62736 15.625 2.13607 15.625 2.6665V7.99984C15.625 8.53027 15.3748 9.03898 14.9294 9.41405C14.484 9.78912 13.8799 9.99984 13.25 9.99984H9.29167L5.33333 11.9998V9.99984H3.75C3.12011 9.99984 2.51602 9.78912 2.07062 9.41405C1.62522 9.03898 1.375 8.53027 1.375 7.99984V2.6665C1.375 2.13607 1.62522 1.62736 2.07062 1.25229C2.51602 0.877218 3.12011 0.666504 3.75 0.666504H13.25Z" stroke="white" stroke-linecap="round" stroke-linejoin="round"/>
</svg>
