<svg width="20" height="23" viewBox="0 0 20 23" fill="none" xmlns="http://www.w3.org/2000/svg">
<path d="M3 0C2.5 0 2.1 0.235294 1.8 0.705882L0.5 2.58824C0.2 3.05882 0 3.52941 0 4.11765V18.8235C0 20.1176 0.9 21.1765 2 21.1765H10.3C10.1 20.4706 10 19.6471 10 18.8235C10 14.9412 12.7 11.7647 16 11.7647C16.7 11.7647 17.4 11.8824 18 12.1176V4.11765C18 3.52941 17.8 3.05882 17.5 2.58824L16.1 0.588235C15.9 0.235294 15.5 0 15 0H3ZM2.9 1.17647H14.9L15.8 2.35294H2.1L2.9 1.17647ZM3 14.1176H9V17.6471H3V14.1176ZM18.3 15.0588L14.7 19.2941L13.1 17.4118L12 18.8235L14.8 22.3529L19.6 16.7059L18.3 15.0588Z" fill="black"/>
</svg>
