<svg width="30" height="30" viewBox="0 0 30 30" fill="none" xmlns="http://www.w3.org/2000/svg">
<path d="M0 15.0002C0 21.1425 3.69352 26.4192 8.97879 28.7392C8.9366 27.6918 8.97129 26.4343 9.23988 25.2947C9.52828 24.077 11.17 17.1211 11.17 17.1211C11.17 17.1211 10.6908 16.1633 10.6908 14.7478C10.6908 12.5249 11.9791 10.8647 13.5837 10.8647C14.9481 10.8647 15.6073 11.8895 15.6073 13.1167C15.6073 14.4882 14.7325 16.5398 14.2826 18.44C13.9068 20.0312 15.0804 21.3291 16.6501 21.3291C19.4921 21.3291 21.4063 17.6788 21.4063 13.3539C21.4063 10.0663 19.192 7.60559 15.1646 7.60559C10.6145 7.60559 7.77984 10.9989 7.77984 14.7892C7.77984 16.0961 8.16516 17.0176 8.76867 17.7313C9.04617 18.0591 9.08473 18.1909 8.9843 18.5673C8.91234 18.8433 8.74711 19.5077 8.67867 19.7711C8.57883 20.151 8.27098 20.2868 7.92762 20.1465C5.83184 19.2909 4.85578 16.9958 4.85578 14.4158C4.85578 10.1548 8.44945 5.04539 15.5763 5.04539C21.3033 5.04539 25.0726 9.18961 25.0726 13.6382C25.0726 19.5225 21.8012 23.9186 16.9789 23.9186C15.3595 23.9186 13.8362 23.0432 13.3144 22.0488C13.3144 22.0488 12.4436 25.5049 12.2591 26.1723C11.9411 27.3288 11.3186 28.4848 10.7494 29.3857C12.1296 29.7938 13.5613 30.001 15.0006 30.0008C23.2839 30.0008 30.0001 23.2849 30.0001 15.0002C30.0001 6.7159 23.2839 0 15.0006 0C6.71648 0 0 6.7159 0 15.0002Z" fill="#CB1F27"/>
</svg>
