<svg width="17" height="20" viewBox="0 0 17 20" fill="none" xmlns="http://www.w3.org/2000/svg">
<path d="M7 0C5.93913 0 4.92172 0.495797 4.17157 1.37832C3.42143 2.26085 3 3.4578 3 4.70588C3 5.95396 3.42143 7.15092 4.17157 8.03344C4.92172 8.91597 5.93913 9.41177 7 9.41177C8.06087 9.41177 9.07828 8.91597 9.82843 8.03344C10.5786 7.15092 11 5.95396 11 4.70588C11 3.4578 10.5786 2.26085 9.82843 1.37832C9.07828 0.495797 8.06087 0 7 0ZM2.009 10.5882C1.74564 10.587 1.48466 10.6469 1.24102 10.7646C0.997393 10.8823 0.775904 11.0554 0.589259 11.274C0.402614 11.4926 0.254485 11.7524 0.153366 12.0385C0.0522479 12.3246 0.000129512 12.6313 0 12.9412C0 14.9306 0.833 16.4306 2.135 17.4082C3.417 18.3694 5.145 18.8235 7 18.8235C7.41 18.8235 7.816 18.8012 8.21 18.7565C7.42493 17.6087 6.99787 16.1791 7 14.7059C7 13.1412 7.472 11.7059 8.257 10.5882H2.01H2.009ZM8.635 14.0235C8.89323 13.9458 9.13565 13.8082 9.34802 13.6187C9.56039 13.4292 9.73842 13.1916 9.87164 12.92C10.0049 12.6484 10.0906 12.3482 10.1238 12.0371C10.157 11.726 10.137 11.4102 10.065 11.1082L9.91 10.4529C10.164 10.2235 10.439 10.0271 10.731 9.86824L11.069 10.2894C11.2559 10.5227 11.4813 10.7086 11.7315 10.8357C11.9817 10.9628 12.2513 11.0285 12.5238 11.0286C12.7963 11.0287 13.0659 10.9633 13.3162 10.8364C13.5664 10.7095 13.792 10.5237 13.979 10.2906L14.303 9.88588C14.601 10.0506 14.881 10.2565 15.138 10.4953L15.012 10.9929C14.934 11.3 14.9101 11.6226 14.9419 11.941C14.9737 12.2593 15.0604 12.5667 15.1967 12.8442C15.333 13.1217 15.5161 13.3635 15.7347 13.5547C15.9533 13.746 16.2029 13.8827 16.468 13.9565L16.817 14.0529C16.8571 14.4502 16.8605 14.8513 16.827 15.2494L16.367 15.3871C16.1086 15.4646 15.8659 15.6022 15.6534 15.7917C15.4408 15.9813 15.2626 16.2189 15.1293 16.4907C14.996 16.7624 14.9102 17.0628 14.877 17.3741C14.8438 17.6855 14.8638 18.0015 14.936 18.3035L15.092 18.9576C14.8372 19.1881 14.5616 19.3846 14.27 19.5435L13.932 19.1224C13.7452 18.8892 13.5198 18.7033 13.2698 18.5762C13.0198 18.4491 12.7503 18.3835 12.4779 18.3832C12.2056 18.383 11.936 18.4482 11.6858 18.5749C11.4356 18.7016 11.2101 18.8871 11.023 19.12L10.698 19.5247C10.4009 19.3596 10.1207 19.1551 9.863 18.9153L9.99 18.4188C10.0682 18.1117 10.0921 17.7889 10.0605 17.4705C10.0288 17.152 9.9421 16.8445 9.80575 16.5669C9.6694 16.2892 9.48626 16.0473 9.26757 15.856C9.04887 15.6646 8.79924 15.5279 8.534 15.4541L8.184 15.3576C8.14406 14.9608 8.14071 14.56 8.174 14.1624L8.635 14.0235ZM13.5 14.7059C13.5 14.3939 13.3946 14.0946 13.2071 13.874C13.0196 13.6534 12.7652 13.5294 12.5 13.5294C12.2348 13.5294 11.9804 13.6534 11.7929 13.874C11.6054 14.0946 11.5 14.3939 11.5 14.7059C11.5 15.0179 11.6054 15.3171 11.7929 15.5378C11.9804 15.7584 12.2348 15.8824 12.5 15.8824C12.7652 15.8824 13.0196 15.7584 13.2071 15.5378C13.3946 15.3171 13.5 15.0179 13.5 14.7059Z" fill="black"/>
</svg>
