<svg width="14" height="20" viewBox="0 0 14 20" fill="none" xmlns="http://www.w3.org/2000/svg">
<path d="M0.620894 16.9351L8.87055 9.99067L0.620894 3.04627C0.424047 2.88057 0.2679 2.68385 0.161366 2.46735C0.0548333 2.25085 2.07413e-09 2.0188 0 1.78446C-2.07412e-09 1.55012 0.0548334 1.31808 0.161366 1.10158C0.2679 0.885078 0.424047 0.68836 0.620894 0.522657C0.817742 0.356955 1.05143 0.225512 1.30863 0.135834C1.56582 0.0461569 1.84148 -1.74596e-09 2.11986 0C2.39825 1.74596e-09 2.67391 0.0461568 2.9311 0.135834C3.18829 0.225512 3.42199 0.356955 3.61883 0.522657L13.3781 8.73782C14.2073 9.43584 14.2073 10.5634 13.3781 11.2614L3.61883 19.4766C3.42213 19.6425 3.18849 19.7741 2.93127 19.864C2.67406 19.9538 2.39833 20 2.11986 20C1.8414 20 1.56567 19.9538 1.30846 19.864C1.05124 19.7741 0.817597 19.6425 0.620894 19.4766C-0.187061 18.7786 -0.208323 17.6331 0.620894 16.9351Z" fill="white"/>
</svg>
