<svg width="14" height="23" viewBox="0 0 14 23" fill="none" xmlns="http://www.w3.org/2000/svg">
<path d="M3.96106 0.728058C3.75164 0.503313 3.4991 0.32305 3.2185 0.198025C2.9379 0.073 2.635 0.00577164 2.32785 0.000352859C2.02071 -0.00506783 1.71562 0.0514336 1.43079 0.166483C1.14595 0.281532 0.887213 0.452774 0.669996 0.669992C0.452778 0.887209 0.281536 1.14595 0.166487 1.43078C0.0514377 1.71562 -0.0050632 2.02071 0.000355995 2.32785C0.00577519 2.63499 0.0730033 2.9379 0.198029 3.2185C0.323054 3.4991 0.503317 3.75164 0.728062 3.96106L8.26156 11.4946L0.728062 19.0281C0.323998 19.4617 0.10402 20.0352 0.114476 20.6279C0.124932 21.2205 0.365006 21.7859 0.784116 22.205C1.20323 22.6241 1.76865 22.8642 2.36127 22.8746C2.95389 22.8851 3.52743 22.6651 3.96106 22.2611L13.1111 13.1111C13.5394 12.6821 13.78 12.1007 13.78 11.4946C13.78 10.8884 13.5394 10.307 13.1111 9.87806L3.96106 0.728058Z" fill="black"/>
</svg>
