<svg width="18" height="20" viewBox="0 0 18 20" fill="none" xmlns="http://www.w3.org/2000/svg">
<path d="M11.4746 3.99927H12.7814C13.1189 3.99927 13.433 3.99927 13.7246 4.00127V8.86851L13.0901 8.47449L13.082 8.46949C13.0355 8.43902 12.9874 8.41164 12.938 8.38749C12.8316 8.33412 12.7163 8.30618 12.5996 8.30548C12.4826 8.30604 12.367 8.33398 12.2603 8.38749C12.2045 8.41449 12.1478 8.45049 12.1163 8.46949L12.1091 8.47449L11.4746 8.86851V3.99927Z" fill="black"/>
<path d="M18 9.79749V11.9996C18 15.7708 18 17.6569 16.9452 18.8279C15.8913 20 14.1939 20 10.8 20H7.2C3.8061 20 2.1087 20 1.0548 18.8279C-1.07288e-07 17.6569 0 15.7708 0 11.9996V4.94925C0 4.0662 -6.03497e-08 3.62518 0.0629999 3.25716C0.197301 2.46696 0.542823 1.74009 1.05449 1.17136C1.56615 0.602643 2.2202 0.218483 2.9313 0.0690035C3.2625 7.45095e-09 3.6603 0 4.4541 0C4.8015 0 4.9761 -4.09802e-08 5.1435 0.0170008C5.86444 0.0922347 6.54821 0.407299 7.1055 0.921046C7.2351 1.04005 7.3575 1.17606 7.6041 1.45007L8.0991 2.0001C8.8335 2.81614 9.2007 3.22416 9.6399 3.49517C9.7956 3.59218 9.9576 3.67518 10.1241 3.74519V9.45347C10.1241 9.58848 10.1241 9.75549 10.1403 9.89649C10.1583 10.0415 10.215 10.3735 10.5003 10.5935C10.8135 10.8335 11.133 10.7435 11.2788 10.6835C11.4003 10.6335 11.5326 10.5515 11.6262 10.4935L11.6496 10.4785L12.5991 9.88849L13.5486 10.4785L13.572 10.4935C13.6656 10.5515 13.797 10.6335 13.9194 10.6835C14.0652 10.7435 14.3847 10.8335 14.697 10.5935C14.9832 10.3735 15.0399 10.0415 15.057 9.89649C15.075 9.75649 15.075 9.58848 15.0741 9.45347V4.0462C16.0182 4.11821 16.6374 4.30222 17.1045 4.76824C17.1756 4.83924 17.2431 4.91425 17.3061 4.99325C17.9991 5.84829 18 7.16536 18 9.79749Z" fill="black"/>
</svg>
