<svg width="11" height="10" viewBox="0 0 11 10" fill="none" xmlns="http://www.w3.org/2000/svg">
<path d="M0.25 1.5001C0.25 1.12879 0.408035 0.772699 0.68934 0.510148C0.970644 0.247597 1.35218 0.100098 1.75 0.100098H8.03425C8.43204 0.100177 8.81351 0.247729 9.09475 0.510298L10.3105 1.645C10.5918 1.90749 10.7499 2.26352 10.75 2.6348V8.5001C10.75 8.8714 10.592 9.2275 10.3107 9.49005C10.0294 9.7526 9.64782 9.9001 9.25 9.9001H1.75C1.35218 9.9001 0.970644 9.7526 0.68934 9.49005C0.408035 9.2275 0.25 8.8714 0.25 8.5001V1.5001ZM1.75 0.800098C1.55109 0.800098 1.36032 0.873848 1.21967 1.00512C1.07902 1.1364 1 1.31445 1 1.5001V8.5001C1 8.68575 1.07902 8.8638 1.21967 8.99507C1.36032 9.12635 1.55109 9.2001 1.75 9.2001V6.0501C1.75 5.77162 1.86853 5.50455 2.0795 5.30764C2.29048 5.11072 2.57663 5.0001 2.875 5.0001H8.125C8.42337 5.0001 8.70952 5.11072 8.9205 5.30764C9.13147 5.50455 9.25 5.77162 9.25 6.0501V9.2001C9.44891 9.2001 9.63968 9.12635 9.78033 8.99507C9.92098 8.8638 10 8.68575 10 8.5001V2.6348C9.99996 2.44916 9.92091 2.27114 9.78025 2.1399L8.5645 1.0052C8.42388 0.873913 8.23315 0.800137 8.03425 0.800098H7.75V2.5501C7.75 2.82857 7.63147 3.09565 7.4205 3.29256C7.20952 3.48947 6.92337 3.6001 6.625 3.6001H3.625C3.32663 3.6001 3.04048 3.48947 2.8295 3.29256C2.61853 3.09565 2.5 2.82857 2.5 2.5501V0.800098H1.75ZM3.25 0.800098V2.5501C3.25 2.64292 3.28951 2.73195 3.35984 2.79759C3.43016 2.86322 3.52554 2.9001 3.625 2.9001H6.625C6.72446 2.9001 6.81984 2.86322 6.89017 2.79759C6.96049 2.73195 7 2.64292 7 2.5501V0.800098H3.25ZM8.5 9.2001V6.0501C8.5 5.95727 8.46049 5.86825 8.39017 5.80261C8.31984 5.73697 8.22446 5.7001 8.125 5.7001H2.875C2.77554 5.7001 2.68016 5.73697 2.60984 5.80261C2.53951 5.86825 2.5 5.95727 2.5 6.0501V9.2001H8.5Z" fill="white"/>
</svg>
