<svg width="17" height="16" viewBox="0 0 17 16" fill="none" xmlns="http://www.w3.org/2000/svg">
<path d="M12.75 10.55C12.2117 10.55 11.73 10.7375 11.3617 11.0312L6.31125 8.4375C6.34667 8.29375 6.375 8.15 6.375 8C6.375 7.85 6.34667 7.70625 6.31125 7.5625L11.305 4.99375C11.6875 5.30625 12.1904 5.5 12.75 5.5C13.9258 5.5 14.875 4.6625 14.875 3.625C14.875 2.5875 13.9258 1.75 12.75 1.75C11.5742 1.75 10.625 2.5875 10.625 3.625C10.625 3.775 10.6533 3.91875 10.6888 4.0625L5.695 6.63125C5.3125 6.31875 4.80958 6.125 4.25 6.125C3.07417 6.125 2.125 6.9625 2.125 8C2.125 9.0375 3.07417 9.875 4.25 9.875C4.80958 9.875 5.3125 9.68125 5.695 9.36875L10.7383 11.9688C10.7029 12.1 10.6817 12.2375 10.6817 12.375C10.6817 13.3813 11.6096 14.2 12.75 14.2C13.8904 14.2 14.8183 13.3813 14.8183 12.375C14.8183 11.3687 13.8904 10.55 12.75 10.55Z" fill="white"/>
</svg>
