<svg width="23" height="20" viewBox="0 0 23 20" fill="none" xmlns="http://www.w3.org/2000/svg">
<path d="M11.5139 10.4477C11.2392 10.4477 10.9817 10.4148 10.7413 10.349C10.501 10.2832 10.2778 10.1702 10.0718 10.0099L0.594468 2.68651C0.216751 2.39464 0.0189646 2.02953 0.00110888 1.59119C-0.0167469 1.15285 0.181039 0.775001 0.594468 0.457654C0.972186 0.165779 1.45292 0.0198418 2.03666 0.0198418C2.62041 0.0198418 3.10114 0.165779 3.47886 0.457654L11.5139 6.62682L19.549 0.457654C19.9268 0.165779 20.3992 0.0134735 20.9665 0.00073715C21.5338 -0.0119992 22.0227 0.140306 22.4334 0.457654C22.8111 0.749528 23 1.121 23 1.57208C23 2.02316 22.8111 2.39464 22.4334 2.68651L12.9561 10.0099C12.7501 10.1691 12.5269 10.2821 12.2866 10.349C12.0462 10.4159 11.7886 10.4488 11.5139 10.4477ZM11.5139 20C11.2392 20 10.9817 19.9671 10.7413 19.9013C10.501 19.8355 10.2778 19.7224 10.0718 19.5622L0.594468 12.2388C0.216751 11.9469 0.0189646 11.5823 0.00110888 11.145C-0.0167469 10.7078 0.181039 10.3294 0.594468 10.0099C0.972186 9.71803 1.45292 9.5721 2.03666 9.5721C2.62041 9.5721 3.10114 9.71803 3.47886 10.0099L11.5139 16.1791L19.549 10.0099C19.9268 9.71803 20.3992 9.5652 20.9665 9.5514C21.5338 9.5376 22.0227 9.69044 22.4334 10.0099C22.8111 10.3018 23 10.6733 23 11.1243C23 11.5754 22.8111 11.9469 22.4334 12.2388L12.9561 19.5622C12.7501 19.7214 12.5269 19.8344 12.2866 19.9013C12.0462 19.9681 11.7886 20.001 11.5139 20Z" fill="#FF6063"/>
</svg>
