<svg width="21" height="19" viewBox="0 0 21 19" fill="none" xmlns="http://www.w3.org/2000/svg">
<path d="M18.8501 5.21599C18.8629 5.40122 18.8629 5.58628 18.8629 5.77315C18.8629 11.4661 14.5289 18.0319 6.60417 18.0319V18.0286C4.26302 18.0319 1.97038 17.3613 0 16.0969C0.34043 16.138 0.6825 16.1585 1.02539 16.1593C2.96578 16.1608 4.85035 15.51 6.37629 14.3115C5.47722 14.2945 4.60593 13.997 3.88425 13.4605C3.16256 12.924 2.62656 12.1755 2.35118 11.3194C2.99709 11.4441 3.66253 11.4184 4.29647 11.2451C2.28638 10.8391 0.840328 9.0731 0.840328 7.02216V6.96752C1.43953 7.30134 2.11018 7.48629 2.79579 7.5068C0.902344 6.24155 0.319102 3.72302 1.46229 1.75411C2.54394 3.08509 3.89347 4.17366 5.42322 4.94911C6.95298 5.72456 8.62875 6.16955 10.3417 6.25516C10.1709 5.51996 10.1962 4.75282 10.415 4.03045C10.6337 3.30808 11.0383 2.6558 11.5882 2.13884C13.3235 0.507563 16.0527 0.591235 17.6838 2.3257C18.6487 2.13518 19.574 1.78142 20.4199 1.27964C20.0982 2.27726 19.4252 3.12409 18.5259 3.66265C19.38 3.56195 20.214 3.33326 21 2.98425C20.4218 3.85011 19.6938 4.60587 18.8501 5.21599Z" fill="#1D9BF0"/>
</svg>
