<svg width="18" height="19" viewBox="0 0 18 19" fill="none" xmlns="http://www.w3.org/2000/svg">
<path fill-rule="evenodd" clip-rule="evenodd" d="M16.5683 5.80226C16.5206 5.7981 16.4676 5.7981 16.4121 5.7981H14.2219C12.428 5.7981 10.8936 7.4945 10.8936 9.70566C10.8936 11.9168 12.4289 13.6132 14.2219 13.6132H16.4121C16.4676 13.6132 16.5206 13.6132 16.57 13.6091C16.9387 13.5823 17.2867 13.3955 17.5492 13.0834C17.8117 12.7713 17.9709 12.3552 17.9969 11.9127C18.0004 11.8501 18.0004 11.7824 18.0004 11.7199V7.69144C18.0004 7.62892 18.0004 7.56119 17.9969 7.49867C17.9709 7.05608 17.8117 6.63998 17.5492 6.32787C17.2867 6.01577 16.9387 5.82897 16.57 5.80226H16.5683ZM14.0284 10.7477C14.4899 10.7477 14.8638 10.2809 14.8638 9.70566C14.8638 9.13047 14.4899 8.66364 14.0284 8.66364C13.5661 8.66364 13.1922 9.13047 13.1922 9.70566C13.1922 10.2809 13.5661 10.7477 14.0284 10.7477Z" fill="black"/>
<path fill-rule="evenodd" clip-rule="evenodd" d="M16.41 15.1764C16.44 15.1749 16.4698 15.182 16.4971 15.197C16.5244 15.212 16.5484 15.2346 16.567 15.2628C16.5857 15.291 16.5986 15.3241 16.6046 15.3594C16.6106 15.3948 16.6096 15.4313 16.6017 15.4661C16.4282 16.208 16.1515 16.8415 15.7082 17.3729C15.0585 18.1545 14.2353 18.4994 13.2187 18.664C12.2299 18.8234 10.9678 18.8234 9.37342 18.8234H7.54141C5.94708 18.8234 4.68411 18.8234 3.69611 18.664C2.67948 18.4994 1.85629 18.1534 1.20659 17.374C0.557756 16.5935 0.26977 15.6046 0.132716 14.3834C1.03405e-07 13.1955 0 11.6794 0 9.76414V9.64743C0 7.7322 1.03405e-07 6.21503 0.132716 5.02713C0.26977 3.80588 0.557756 2.81701 1.20659 2.03654C1.85629 1.25711 2.67948 0.91116 3.69611 0.746521C4.68498 0.588135 5.94708 0.588135 7.54141 0.588135H9.37342C10.9678 0.588135 12.2307 0.588135 13.2187 0.747563C14.2353 0.912202 15.0585 1.25815 15.7082 2.03758C16.1515 2.57109 16.4282 3.2036 16.6017 3.94551C16.6096 3.98028 16.6106 4.01681 16.6046 4.05213C16.5986 4.08745 16.5857 4.12057 16.567 4.14879C16.5484 4.17701 16.5244 4.19955 16.4971 4.21456C16.4698 4.22957 16.44 4.23664 16.41 4.23519H14.2206C11.7597 4.23519 9.59114 6.56931 9.59114 9.70578C9.59114 12.8423 11.7597 15.1764 14.2206 15.1764H16.41ZM3.25285 4.7562C3.08031 4.7562 2.91483 4.83854 2.79283 4.9851C2.67082 5.13166 2.60228 5.33044 2.60228 5.53771C2.60228 5.74499 2.67082 5.94377 2.79283 6.09033C2.91483 6.23689 3.08031 6.31923 3.25285 6.31923H6.72256C6.8951 6.31923 7.06058 6.23689 7.18258 6.09033C7.30459 5.94377 7.37313 5.74499 7.37313 5.53771C7.37313 5.33044 7.30459 5.13166 7.18258 4.9851C7.06058 4.83854 6.8951 4.7562 6.72256 4.7562H3.25285Z" fill="black"/>
</svg>
