<svg width="29" height="29" viewBox="0 0 29 29" fill="none" xmlns="http://www.w3.org/2000/svg">
<g clip-path="url(#clip0_104_6498)">
<path d="M0.618846 14.3265C0.618167 16.763 1.25979 19.1421 2.47983 21.2391L0.502167 28.4039L7.89173 26.4814C9.93558 27.5854 12.2256 28.1639 14.5527 28.1641H14.5588C22.241 28.1641 28.4944 21.9613 28.4977 14.3374C28.4992 10.643 27.0505 7.16908 24.4186 4.55548C21.787 1.94211 18.2872 0.502113 14.5582 0.500427C6.87514 0.500427 0.622132 6.70283 0.61896 14.3265" fill="url(#paint0_linear_104_6498)"/>
<path d="M0.121211 14.322C0.120418 16.8462 0.785039 19.3104 2.04858 21.4825L0 28.9041L7.65453 26.9127C9.7636 28.0537 12.1382 28.6553 14.5545 28.6562H14.5607C22.5185 28.6562 28.9966 22.2303 29 14.3334C29.0014 10.5063 27.5006 6.90751 24.7746 4.20028C22.0483 1.49339 18.4233 0.00157364 14.5607 0C6.60158 0 0.124383 6.42496 0.121211 14.322ZM4.67965 21.1084L4.39384 20.6582C3.19238 18.7627 2.55823 16.5722 2.55914 14.3229C2.56174 7.75907 7.94532 2.41891 14.5653 2.41891C17.7711 2.42026 20.7839 3.66029 23.05 5.91016C25.316 8.16024 26.5629 11.1513 26.5621 14.3325C26.5591 20.8963 21.1754 26.2371 14.5607 26.2371H14.556C12.4021 26.236 10.2898 25.6621 8.44761 24.5775L8.00921 24.3195L3.46686 25.5012L4.67965 21.1083V21.1084Z" fill="url(#paint1_linear_104_6498)"/>
<path d="M10.9518 8.33446C10.6815 7.73839 10.3971 7.72636 10.14 7.71591C9.92956 7.70692 9.68895 7.70759 9.44857 7.70759C9.20796 7.70759 8.81703 7.7974 8.48658 8.15541C8.1558 8.51375 7.22372 9.3797 7.22372 11.1409C7.22372 12.9023 8.5166 14.6044 8.69683 14.8435C8.87729 15.0821 11.1928 18.8121 14.8599 20.2471C17.9076 21.4395 18.5278 21.2024 19.1893 21.1426C19.8508 21.083 21.324 20.2768 21.6245 19.4409C21.9253 18.6051 21.9253 17.8886 21.8351 17.7389C21.7449 17.5897 21.5043 17.5001 21.1435 17.3212C20.7826 17.1421 19.0088 16.2761 18.6782 16.1566C18.3474 16.0372 18.1069 15.9777 17.8663 16.3361C17.6257 16.694 16.9348 17.5002 16.7242 17.7389C16.5138 17.9782 16.3032 18.008 15.9425 17.8289C15.5815 17.6493 14.4196 17.2717 13.0411 16.0523C11.9685 15.1034 11.2444 13.9316 11.0339 13.5731C10.8235 13.2152 11.0114 13.0212 11.1923 12.8428C11.3544 12.6824 11.5532 12.4248 11.7338 12.2159C11.9137 12.0068 11.9737 11.8576 12.094 11.6189C12.2144 11.3799 12.1542 11.1708 12.0641 10.9918C11.9737 10.8127 11.2726 9.04227 10.9518 8.33446Z" fill="white"/>
</g>
<defs>
<linearGradient id="paint0_linear_104_6498" x1="1400.28" y1="2790.85" x2="1400.28" y2="0.500427" gradientUnits="userSpaceOnUse">
<stop stop-color="#1FAF38"/>
<stop offset="1" stop-color="#60D669"/>
</linearGradient>
<linearGradient id="paint1_linear_104_6498" x1="1450" y1="2890.41" x2="1450" y2="0" gradientUnits="userSpaceOnUse">
<stop stop-color="#F9F9F9"/>
<stop offset="1" stop-color="white"/>
</linearGradient>
<clipPath id="clip0_104_6498">
<rect width="29" height="29" fill="white"/>
</clipPath>
</defs>
</svg>
