<svg width="38" height="38" viewBox="0 0 38 38" fill="none" xmlns="http://www.w3.org/2000/svg">
<path d="M3.16675 19C3.16675 27.7447 10.2553 34.8333 19.0001 34.8333C27.7448 34.8333 34.8334 27.7447 34.8334 19C34.8334 10.2552 27.7448 3.16663 19.0001 3.16663C10.2553 3.16663 3.16675 10.2552 3.16675 19Z" stroke="white" stroke-width="1.5" stroke-linecap="round" stroke-linejoin="round"/>
<path d="M20.5835 3.24585C20.5835 3.24585 25.3335 9.50002 25.3335 19C25.3335 28.5 20.5835 34.7542 20.5835 34.7542M17.4168 34.7542C17.4168 34.7542 12.6668 28.5 12.6668 19C12.6668 9.50002 17.4168 3.24585 17.4168 3.24585M4.16431 24.5417H33.836M4.16431 13.4583H33.836" stroke="white" stroke-width="1.5" stroke-linecap="round" stroke-linejoin="round"/>
</svg>
