<svg width="42" height="42" viewBox="0 0 42 42" fill="none" xmlns="http://www.w3.org/2000/svg">
<path opacity="0.5" d="M21 42C32.5983 42 42 32.5983 42 21C42 9.4017 32.5983 0 21 0C9.4017 0 0 9.4017 0 21C0 24.36 0.7896 27.5352 2.1903 30.3513C2.5641 31.0989 2.688 31.9536 2.4717 32.7621L1.2222 37.4367C1.09891 37.8992 1.09937 38.3859 1.22354 38.8482C1.34772 39.3104 1.59123 39.7319 1.92967 40.0703C2.26811 40.4088 2.68958 40.6523 3.15182 40.7764C3.61406 40.9006 4.10082 40.9011 4.5633 40.7778L9.2379 39.5283C10.0494 39.3241 10.9075 39.4234 11.6508 39.8076C14.5549 41.2537 17.7557 42.0043 21 42Z" fill="#FF6063"/>
<path d="M23.5622 15.6388C27.4535 18.0307 29.4002 19.2277 29.4002 21.0001C29.4002 22.7746 27.4535 23.9695 23.5622 26.3614C19.6142 28.7869 17.6423 29.9986 16.1702 29.1082C14.7002 28.2178 14.7002 25.8112 14.7002 21.0001C14.7002 16.189 14.7002 13.7824 16.1702 12.892C17.6423 12.0016 19.6142 13.2133 23.5622 15.6388Z" fill="white"/>
</svg>
